<?xml version="1.0" standalone="no"?>
<!DOCTYPE svg PUBLIC "-//W3C//DTD SVG 1.1//EN" "http://www.w3.org/Graphics/SVG/1.1/DTD/svg11.dtd">
<svg width="64px" height="64px" version="1.1" xmlns="http://www.w3.org/2000/svg" xmlns:xlink="http://www.w3.org/1999/xlink" xml:space="preserve" style="fill-rule:evenodd;clip-rule:evenodd;stroke-linejoin:round;stroke-miterlimit:1.41421;">
    <g>
        <g>
            <path d="M37.932,15.948C37.53,15.552 37.09,15.3 36.643,15.158C35.828,14.847 34.078,14.248 33.232,14.145L30.713,17.737L28.361,14.38C27.013,14.449 26.486,14.332 25.037,14.862C22.593,15.758 20.761,21.973 19.901,24.423C19.041,26.872 21.606,28.399 23.496,28.906L32.332,28.906C33.456,28.906 34.37,27.991 34.37,26.868C34.37,25.744 33.456,24.83 32.332,24.83L25.595,24.83L25.595,23.93L30.868,23.93L30.868,23.362L28.881,20.25L34.191,20.25L34.199,20.253L32.325,23.4L32.325,23.932L32.332,23.932C33.952,23.932 35.27,25.25 35.27,26.87C35.27,28.49 33.953,29.808 32.332,29.808L24.953,29.808L24.649,58.728C24.649,60.573 26.144,62.068 27.988,62.068C29.832,62.068 30.109,60.573 30.109,58.728L31.023,43.554C31.023,43.554 30.734,42.48 31.279,42.398C31.824,42.316 31.654,43.371 31.654,43.371L32.239,59.113C32.375,60.668 33.774,62.121 35.328,61.984C36.884,61.847 38.008,60.172 37.871,58.619L37.238,25.165C37.255,24.924 37.265,24.684 37.281,24.444C38.493,26.956 38.814,29.708 38.65,33.055C38.459,36.983 44.549,36.962 44.741,33.055C45.074,26.233 42.775,20.722 37.932,15.948Z" style="fill:rgb(14,15,15);fill-rule:nonzero;"/>
        </g>
        <g>
            <path d="M31.12,3.215C33.8107,3.215 35.992,5.39627 35.992,8.087C35.992,10.7777 33.8107,12.959 31.12,12.959C28.4293,12.959 26.248,10.7777 26.248,8.087C26.248,5.39627 28.4293,3.215 31.12,3.215Z" style="fill:rgb(14,15,15);"/>
        </g>
        <g>
            <path d="M30.768,14.567L30.406,14.567C30.378,14.33 30.15,14.146 29.87,14.146C29.57,14.146 29.328,14.356 29.328,14.615L29.328,15.243C29.328,15.502 29.571,15.713 29.87,15.713C30.162,15.713 30.397,15.512 30.409,15.262L30.763,15.262C30.775,15.512 31.011,15.713 31.303,15.713C31.602,15.713 31.845,15.503 31.845,15.243L31.845,14.615C31.845,14.357 31.602,14.146 31.303,14.146C31.023,14.146 30.796,14.33 30.768,14.567Z" style="fill:rgb(14,15,15);fill-rule:nonzero;"/>
        </g>
        <g>
            <path d="M31.653,21.304C31.33,22.218 30.34,21.609 30.34,21.609L31.292,22.865L32.282,22.865L32.967,21.304C32.966,21.304 31.977,20.391 31.653,21.304Z" style="fill:rgb(14,15,15);fill-rule:nonzero;"/>
        </g>
    </g>
</svg>
